
<svg xmlns="http://www.w3.org/2000/svg" class="FIGHT_PROP_HP" style="undefined" viewBox="0 0 14 14"><path fill="#ffffff" d="M3.5 7.654a.98.98 0 0 1 .449-.571c1.51-.85 3.586 2.117 6.544.548 1.927 6.083-8.893 6.247-6.992.023zM7 14c-3.373 0-6.75-2.421-5.134-7.26A18.5 18.5 0 0 1 6.57.213.75.75 0 0 1 7 0a.75.75 0 0 1 .432.212 18.5 18.5 0 0 1 4.705 6.528C13.749 11.579 10.376 14 7 14m.22-12.19A.6.6 0 0 0 7 1.735a.7.7 0 0 0-.22.075C5.07 3.134 2.7 7.092 2.839 9.21A4.02 4.02 0 0 0 7 12.753a4.02 4.02 0 0 0 4.162-3.538c.139-2.123-2.231-6.081-3.942-7.405"></path><path fill="currentColor" d="M7.98 8.03a12.6 12.6 0 0 1 1.573-1.509c.569-.413.94 1.11.94 1.11a3.73 3.73 0 0 1-2.513.399" style="color:lightgray;fill-opacity:.496933"></path></svg>