<?xml version="1.0" encoding="UTF-8"?>
<svg version="1.1" xmlns="http://www.w3.org/2000/svg" width="48" height="48">
<path d="M0 0 C1.27875 0.00257813 2.5575 0.00515625 3.875 0.0078125 C5.15375 0.00523437 6.4325 0.00265625 7.75 0 C10.875 0.1328125 10.875 0.1328125 11.875 1.1328125 C12.01615161 3.80340101 11.91747107 6.45713488 11.875 9.1328125 C13.174375 9.1121875 14.47375 9.0915625 15.8125 9.0703125 C17.16665633 9.04881796 18.52256083 9.06133051 19.875 9.1328125 C20.875 10.1328125 20.875 10.1328125 20.97265625 13.51171875 C20.96598369 14.90628327 20.95402532 16.30082993 20.9375 17.6953125 C20.93298828 18.40623047 20.92847656 19.11714844 20.92382812 19.84960938 C20.91200864 21.61071263 20.89407263 23.37177286 20.875 25.1328125 C17.49182513 26.10872833 15.3092662 25.99137905 11.875 25.1328125 C12.060625 26.0609375 12.24625 26.9890625 12.4375 27.9453125 C12.875 31.1328125 12.875 31.1328125 11.875 34.1328125 C9.39576199 34.15966345 6.9168116 34.17957797 4.4375 34.1953125 C3.73044922 34.20369141 3.02339844 34.21207031 2.29492188 34.22070312 C0.48806441 34.22934838 -1.31887603 34.18501261 -3.125 34.1328125 C-4.125 33.1328125 -4.125 33.1328125 -4.22265625 31.28515625 C-4.17382812 28.20898438 -4.17382812 28.20898438 -4.125 25.1328125 C-5.424375 25.1534375 -6.72375 25.1740625 -8.0625 25.1953125 C-9.41665633 25.21680704 -10.77256083 25.20429449 -12.125 25.1328125 C-13.125 24.1328125 -13.125 24.1328125 -13.2578125 21.0078125 C-13.25523438 19.7290625 -13.25265625 18.4503125 -13.25 17.1328125 C-13.25257812 15.8540625 -13.25515625 14.5753125 -13.2578125 13.2578125 C-13.125 10.1328125 -13.125 10.1328125 -12.125 9.1328125 C-9.45441149 8.99166089 -6.80067762 9.09034143 -4.125 9.1328125 C-4.145625 7.8334375 -4.16625 6.5340625 -4.1875 5.1953125 C-4.20899454 3.84115617 -4.19648199 2.48525167 -4.125 1.1328125 C-3.125 0.1328125 -3.125 0.1328125 0 0 Z " fill="#ffffff" transform="translate(20.125,6.8671875)"/>
<path d="M0 0 C1.27875 0.00257813 2.5575 0.00515625 3.875 0.0078125 C5.15375 0.00523437 6.4325 0.00265625 7.75 0 C10.875 0.1328125 10.875 0.1328125 11.875 1.1328125 C12.01615161 3.80340101 11.91747107 6.45713488 11.875 9.1328125 C13.174375 9.1121875 14.47375 9.0915625 15.8125 9.0703125 C17.16665633 9.04881796 18.52256083 9.06133051 19.875 9.1328125 C20.875 10.1328125 20.875 10.1328125 20.97265625 13.51171875 C20.96598369 14.90628327 20.95402532 16.30082993 20.9375 17.6953125 C20.93298828 18.40623047 20.92847656 19.11714844 20.92382812 19.84960938 C20.91200864 21.61071263 20.89407263 23.37177286 20.875 25.1328125 C17.49182513 26.10872833 15.3092662 25.99137905 11.875 25.1328125 C12.060625 26.0609375 12.24625 26.9890625 12.4375 27.9453125 C12.875 31.1328125 12.875 31.1328125 11.875 34.1328125 C9.39576199 34.15966345 6.9168116 34.17957797 4.4375 34.1953125 C3.73044922 34.20369141 3.02339844 34.21207031 2.29492188 34.22070312 C0.48806441 34.22934838 -1.31887603 34.18501261 -3.125 34.1328125 C-4.125 33.1328125 -4.125 33.1328125 -4.22265625 31.28515625 C-4.17382812 28.20898438 -4.17382812 28.20898438 -4.125 25.1328125 C-5.424375 25.1534375 -6.72375 25.1740625 -8.0625 25.1953125 C-9.41665633 25.21680704 -10.77256083 25.20429449 -12.125 25.1328125 C-13.125 24.1328125 -13.125 24.1328125 -13.2578125 21.0078125 C-13.25523438 19.7290625 -13.25265625 18.4503125 -13.25 17.1328125 C-13.25257812 15.8540625 -13.25515625 14.5753125 -13.2578125 13.2578125 C-13.125 10.1328125 -13.125 10.1328125 -12.125 9.1328125 C-9.45441149 8.99166089 -6.80067762 9.09034143 -4.125 9.1328125 C-4.145625 7.8334375 -4.16625 6.5340625 -4.1875 5.1953125 C-4.20899454 3.84115617 -4.19648199 2.48525167 -4.125 1.1328125 C-3.125 0.1328125 -3.125 0.1328125 0 0 Z M-2.125 3.1328125 C-2.19648199 4.48525167 -2.20899454 5.84115617 -2.1875 7.1953125 C-2.166875 8.4946875 -2.14625 9.7940625 -2.125 11.1328125 C-3.424375 11.1121875 -4.72375 11.0915625 -6.0625 11.0703125 C-7.41665633 11.04881796 -8.77256083 11.06133051 -10.125 11.1328125 C-11.37673779 12.16314639 -11.37673779 12.16314639 -11.2578125 14.3828125 C-11.25523438 15.2903125 -11.25265625 16.1978125 -11.25 17.1328125 C-11.25257812 18.0403125 -11.25515625 18.9478125 -11.2578125 19.8828125 C-11.37673779 22.10247861 -11.37673779 22.10247861 -10.125 23.1328125 C-7.45441149 23.27396411 -4.80067762 23.17528357 -2.125 23.1328125 C-2.17382812 26.20898438 -2.17382812 26.20898438 -2.22265625 29.28515625 C-2.33061184 31.15013391 -2.33061184 31.15013391 -1.125 32.1328125 C0.53929051 32.23105187 2.20781931 32.26254881 3.875 32.2578125 C4.7825 32.26039062 5.69 32.26296875 6.625 32.265625 C8.84466611 32.38455029 8.84466611 32.38455029 9.875 31.1328125 C9.94648199 29.78037333 9.95899454 28.42446883 9.9375 27.0703125 C9.916875 25.7709375 9.89625 24.4715625 9.875 23.1328125 C11.174375 23.1534375 12.47375 23.1740625 13.8125 23.1953125 C15.16665633 23.21680704 16.52256083 23.20429449 17.875 23.1328125 C19.12673779 22.10247861 19.12673779 22.10247861 19.0078125 19.8828125 C19.00394531 18.5215625 19.00394531 18.5215625 19 17.1328125 C19.00257812 16.2253125 19.00515625 15.3178125 19.0078125 14.3828125 C19.12673779 12.16314639 19.12673779 12.16314639 17.875 11.1328125 C15.20441149 10.99166089 12.55067762 11.09034143 9.875 11.1328125 C9.90755208 9.08203125 9.94010417 7.03125 9.97265625 4.98046875 C10.08061184 3.11549109 10.08061184 3.11549109 8.875 2.1328125 C7.21070949 2.03457313 5.54218069 2.00307619 3.875 2.0078125 C2.9675 2.00523438 2.06 2.00265625 1.125 2 C-1.09466611 1.88107471 -1.09466611 1.88107471 -2.125 3.1328125 Z " fill="#ffffff" transform="translate(20.125,6.8671875)"/>
</svg>
