<svg xmlns="http://www.w3.org/2000/svg" class="Icon" style="undefined" viewBox="0 0 14 14"><path d="M4.53 13.517a6.9 6.9 0 0 0 3.025-.468c-.237-.073-.46-.134-.675-.21a9 9 0 0 1-.643-.251 3.9 3.9 0 0 1-2.24-2.243 3.45 3.45 0 0 1-.127-1.82c.117.139.222.277.34.4a1.04 1.04 0 0 0 1.01.32A1.57 1.57 0 0 0 6.499 7.89a2.42 2.42 0 0 0-2.083-2.8 2.99 2.99 0 0 0-3.217 2.152 7.1 7.1 0 0 0-.326 2.186c-.005.309 0 .618 0 .9A7.1 7.1 0 0 1 .01 6.593a6.95 6.95 0 0 1 2.679-5.081c-.26.472-.52.917-.752 1.374a3.7 3.7 0 0 0-.412 1.52c.207-.192.385-.36.566-.523a4.66 4.66 0 0 1 2.155-1.161 3.57 3.57 0 0 1 3.075.79l-.442.09a1.213 1.213 0 0 0-.881 1.693 2.01 2.01 0 0 0 1.719 1.34 2.575 2.575 0 0 0 2.873-2.56 3.33 3.33 0 0 0-1.1-2.508A7.8 7.8 0 0 0 7.287.102C7.235.078 7.183.05 7.106.012a7 7 0 0 1 6.892 5.915c-.282-.45-.544-.9-.836-1.328a3.7 3.7 0 0 0-1.11-1.087c.08.37.172.72.227 1.077a4.09 4.09 0 0 1-.792 3.364 3.55 3.55 0 0 1-1.51 1.017.1.1 0 0 1-.048 0c.062-.2.134-.39.184-.587a1.09 1.09 0 0 0-.525-1.236A1.68 1.68 0 0 0 7.823 7.1a2.357 2.357 0 0 0-1.168 2.96 2.75 2.75 0 0 0 2.377 1.879 4.37 4.37 0 0 0 2.462-.5c.465-.215.9-.5 1.344-.76.056-.031.108-.07.18-.118a6.92 6.92 0 0 1-8.487 2.955z" style="fill:#b380ff"></path></svg>