<svg xmlns="http://www.w3.org/2000/svg" class="Icon" style="undefined" viewBox="0 0 14 14"><path fill="#fff" d="M7 0a.75.75 0 0 0-.43.213A18.5 18.5 0 0 0 1.865 6.74c-1.515 4.536 1.357 6.945 4.502 7.23l-.09-.276.358-.48c.148-.198.22-.3.34-.461a4.02 4.02 0 0 1-4.137-3.541c-.14-2.118 2.231-6.076 3.941-7.4A.7.7 0 0 1 7 1.734a.6.6 0 0 1 .22.077c1.236.956 2.812 3.284 3.542 5.304a.8.8 0 0 1 .265-.32c.262-.18.535-.225.723-.225h.305A18.5 18.5 0 0 0 7.432.213.75.75 0 0 0 7 0M4.543 6.928a1.2 1.2 0 0 0-.594.154.98.98 0 0 0-.449.572c-1 3.277 1.523 4.78 3.857 4.584l.373-.506-.01-.002-.011-.005-.016-.004a2.6 2.6 0 0 1-.795-.518l-.066-.05-.018-.026a2.7 2.7 0 0 1-.527-.854l-.002-.005-.004-.01a3 3 0 0 1-.185-1.069c0-.351.058-.703.183-1.04l.006-.034.002-.002q.106-.279.274-.535c-.76-.317-1.427-.66-2.018-.65"></path><path fill="#fff" d="M9.756 6.45a.33.33 0 0 0-.203.071l-.055.047a2.6 2.6 0 0 1 .734.348c-.122-.244-.284-.46-.476-.467z" style="color:#fff;fill-opacity:.496933"></path><g style="font-size:6.13466px;stroke:#000"><path fill="#fff" stroke="none" d="M12.27 9.17h1.19q.074.025.055.086-2.895 4.03-3.423 4.687-.03.067-.129.055h-.76q-.135 0-.16-.074 2.988-4 3.196-4.398.031-.05.031-.11 0-.068-.08-.19.013-.056.08-.056M8.804 10.3q0-.288.086-.51.086-.226.233-.38.153-.16.362-.239.208-.086.454-.086.251 0 .46.086.209.08.356.24.153.153.239.38.086.22.086.509 0 .282-.086.51-.086.22-.24.38-.146.153-.355.239-.209.08-.46.08-.246 0-.454-.08-.209-.086-.362-.24-.147-.16-.233-.38-.086-.227-.086-.51Zm1.589 0q0-.196-.037-.35-.03-.153-.092-.257-.055-.11-.141-.166-.086-.061-.184-.061-.104 0-.19.06-.08.056-.141.167-.056.104-.092.257-.031.154-.031.35t.03.35q.037.153.093.263.06.11.14.166.087.055.19.055.099 0 .185-.055t.141-.166q.061-.11.092-.263.037-.154.037-.35m1.331 2.313q0-.289.086-.51.086-.226.233-.38.153-.16.362-.24.209-.085.454-.085.251 0 .46.086.209.08.356.24.153.153.24.38.085.22.085.509 0 .282-.086.509-.086.22-.24.38-.146.154-.355.24-.209.08-.46.08-.245 0-.454-.08-.209-.086-.362-.24-.147-.16-.233-.38-.086-.227-.086-.51zm1.589-.019q0-.196-.037-.35-.03-.153-.092-.257-.055-.11-.141-.166-.08-.061-.184-.061-.098 0-.184.061-.086.056-.147.166-.056.104-.092.258-.031.153-.031.35t.03.349q.037.153.093.264.061.11.147.165t.184.056q.104 0 .184-.056.086-.055.141-.165.061-.11.092-.264.037-.153.037-.35" aria-label="%" style="-inkscape-font-specification:TT_Skip-E;stroke:none;-inkscape-stroke:none" transform="matrix(1.3 0 0 1.3 -4.2 -4.2)"></path></g></svg>