<svg xmlns="http://www.w3.org/2000/svg" class="FIGHT_PROP_ICE_ADD_HURT" style="undefined" viewBox="0 0 14 14"><path d="M1.172 3.644s1.332 2.052 1.843 3.163q.078-.298.124-.602a6.25 6.25 0 0 1 3.337.506A6.25 6.25 0 0 1 4.37 4.068q.24-.192.46-.408c-1.217.112-3.658-.016-3.658-.016ZM5.426 6.1a7.2 7.2 0 0 0-2.314-.552 3.4 3.4 0 0 0-.193-.9c.303-.053.598-.147.876-.279A7.2 7.2 0 0 0 5.426 6.1Zm-4.254 4.256s1.332-2.052 1.843-3.163q.078.298.124.602a6.25 6.25 0 0 0 3.337-.506A6.25 6.25 0 0 0 4.37 9.932q.24.192.46.408c-1.217-.112-3.658.016-3.658.016zM5.426 7.9a7.2 7.2 0 0 1-2.314.552 3.5 3.5 0 0 1-.193.9c.303.053.598.147.876.279A7.2 7.2 0 0 1 5.426 7.9ZM7 13.75s-1.11-2.177-1.815-3.175q.297.081.583.193A6.24 6.24 0 0 0 7 7.626a6.25 6.25 0 0 0 1.232 3.143q.284-.111.578-.193C8.106 11.574 7 13.75 7 13.75Zm0-4.912a7.2 7.2 0 0 1-.675 2.284q.381.264.68.62.299-.356.68-.62A7.2 7.2 0 0 1 7 8.838Zm5.828 1.518s-1.331-2.052-1.843-3.163q-.077.298-.123.602a6.25 6.25 0 0 1-3.338-.506A6.26 6.26 0 0 1 9.63 9.932q-.24.192-.46.408c1.217-.112 3.657.016 3.657.016zM8.574 7.9a7.2 7.2 0 0 0 2.314.552q.036.464.193.9a3.4 3.4 0 0 0-.877.279A7.2 7.2 0 0 0 8.574 7.9Zm4.254-4.256s-1.331 2.052-1.843 3.163a6 6 0 0 1-.123-.602 6.25 6.25 0 0 0-3.338.506A6.26 6.26 0 0 0 9.63 4.068a6 6 0 0 1-.46-.408c1.217.112 3.657-.016 3.657-.016ZM8.574 6.1a7.2 7.2 0 0 1 2.314-.552 3.5 3.5 0 0 1 .193-.9 3.4 3.4 0 0 1-.877-.279A7.2 7.2 0 0 1 8.574 6.1ZM7 .25S5.89 2.426 5.185 3.424q.297-.082.583-.193A6.24 6.24 0 0 1 7 6.374a6.25 6.25 0 0 1 1.232-3.143q.284.111.578.193C8.106 2.426 7 .25 7 .25Zm0 4.912a7.2 7.2 0 0 0-.675-2.284 3.5 3.5 0 0 0 .68-.62q.299.356.68.62A7.2 7.2 0 0 0 7 5.162Zm1.103 2.853-.068.787-.718-.334H6.68l-.717.334-.065-.787-.32-.557-.649-.454.649-.453.32-.553.068-.788.717.335h.64l.718-.335.068.788.32.55.648.454-.648.454Z" style="fill:#5df;stroke:#5df;stroke-width:.3;stroke-miterlimit:4;stroke-dasharray:none;stroke-opacity:1;fill-rule:evenodd"></path></svg>