<svg xmlns="http://www.w3.org/2000/svg" class="FIGHT_PROP_ELEMENT_MASTERY" style="undefined" viewBox="0 0 14 14"><path fill="#fff" d="m8.076 8.152-.017-.05A4.3 4.3 0 0 0 7.3 6.796a4 4 0 0 0-.325-.346A2.113 2.113 0 1 0 7 2.223a2.144 2.144 0 0 0-1.838 3.18 4.4 4.4 0 0 0-1.2-.168 4.4 4.4 0 0 0-.755.066l-.038.007C1.836-.24 10.7-1.672 10.962 4.342a3.985 3.985 0 0 1-2.886 3.81m3.662-2.137a4 4 0 0 0-.626-.235 4.5 4.5 0 0 1-1.105 1.7h.031a2.113 2.113 0 1 1-2.113 2.113 4 4 0 0 0-.025-.445 3.97 3.97 0 0 0-1.863-2.931l-.19-.11a3.963 3.963 0 1 0 .645 6.535q.122-.102.236-.214L6.7 12.39a4.4 4.4 0 0 1-.891-1.765 2.112 2.112 0 1 1-.883-2.914q.1.05.189.11a2.11 2.11 0 0 1 .942 1.49 2 2 0 0 1 .018.28 3.963 3.963 0 1 0 5.663-3.577z"></path></svg>